# xmcd
#
# Track frame offsets: 
#        150
#        10660
#        22770
#        35002
#        45680
#        55800
#        67382
#        80845
#        90937
#        102852
#        119885
#        131802
#
# Disc length: 1931 seconds
#
# Revision: 0
# Processed by: cddbd v1.5.2PL0 Copyright (c) Steve Scherf et al.
# Submitted via: ExactAudioCopy v0.95b3
#
DISCID=a207890c
DTITLE=Tonico e Tinoco - Tonico e Tinoco 31 anos
DYEAR=2005
DGENRE=Country
TTITLE0=Primeiro Troféu
TTITLE1=Hoje é meu aniversário
TTITLE2=João de Barro
TTITLE3=No coração de Goiás
TTITLE4=De vencido a vencedor
TTITLE5=Oi vida minha! (moda do peão)
TTITLE6=O menino da porteira
TTITLE7=Vim pra cidade
TTITLE8=As mãos do Papai
TTITLE9=Saudade que eu tenho
TTITLE10=Rancho do Marrueiro
TTITLE11=Jeitinho do meu bem
EXTD=
EXTT0=
EXTT1=
EXTT2=
EXTT3=
EXTT4=
EXTT5=
EXTT6=
EXTT7=
EXTT8=
EXTT9=
EXTT10=
EXTT11=
PLAYORDER=
